<svg width="60" height="12" viewBox="0 0 60 12" fill="none" xmlns="http://www.w3.org/2000/svg">
<path fill-rule="evenodd" clip-rule="evenodd" d="M45.4427 0.501073H46.2271C46.2665 0.501285 46.3042 0.517074 46.3321 0.545005C46.3599 0.572936 46.3756 0.610747 46.3758 0.650211V8.72647C46.3756 8.76598 46.3599 8.80383 46.332 8.83177C46.3041 8.85971 46.2663 8.87547 46.2268 8.87561H45.4425C45.403 8.87547 45.3652 8.85971 45.3373 8.83177C45.3093 8.80383 45.2936 8.76598 45.2935 8.72647V2.20141L44.8823 2.51945C44.8227 2.56841 44.7591 2.61795 44.6913 2.66717L44.6321 2.71293L44.626 2.71358C44.1531 3.04226 43.4935 3.34437 42.639 3.35321H42.605C41.8011 3.35321 41.163 3.0777 40.6842 2.75684L40.678 2.75263L40.6775 2.75234C40.6247 2.71675 40.5738 2.68063 40.5248 2.64427C40.3234 2.49851 40.1284 2.34413 39.9402 2.18156V8.72647C39.9402 8.766 39.9244 8.80389 39.8965 8.83185C39.8686 8.8598 39.8307 8.87554 39.7912 8.87561H39.0074C38.9679 8.87554 38.9301 8.8598 38.9022 8.83185C38.8742 8.80389 38.8585 8.766 38.8584 8.72647V0.649139C38.8585 0.609607 38.8742 0.571713 38.9022 0.543759C38.9301 0.515806 38.9679 0.500071 39.0074 0.5H39.7915C39.814 0.500033 39.8362 0.505166 39.8564 0.515014C39.8767 0.524863 39.8944 0.539172 39.9083 0.556866L40.6839 1.40715C41.0479 1.7854 41.6661 2.31756 42.6028 2.31756H42.6296C43.5052 2.30846 44.1021 1.86879 44.4958 1.46887L44.7265 1.21573L44.7501 1.18802C44.7784 1.15481 44.8094 1.1213 44.8429 1.08809L45.3256 0.558476C45.3395 0.540633 45.3573 0.526189 45.3776 0.516243C45.3978 0.506297 45.4201 0.501109 45.4427 0.501073ZM52.1982 3.6402H52.981C53.0008 3.64006 53.0205 3.64389 53.0389 3.65147C53.0573 3.65905 53.074 3.67022 53.088 3.68434C53.102 3.69845 53.113 3.71523 53.1205 3.73367C53.1279 3.75212 53.1316 3.77187 53.1313 3.79176V8.72726C53.1312 8.7668 53.1155 8.80469 53.0876 8.83264C53.0597 8.86059 53.0218 8.87633 52.9823 8.8764H52.1982C52.1786 8.87637 52.1591 8.87245 52.141 8.86487C52.1229 8.8573 52.1064 8.84622 52.0926 8.83226C52.0787 8.81831 52.0678 8.80175 52.0603 8.78355C52.0529 8.76535 52.0491 8.74586 52.0492 8.72619V8.20769C51.5449 8.63227 50.9085 8.86752 50.2496 8.87291C48.7599 8.87291 47.5522 7.69242 47.5522 6.23939C47.5522 4.78637 48.7599 3.60614 50.2496 3.60614C50.9264 3.60614 51.5755 3.88188 52.0492 4.28423V3.78934C52.0493 3.74981 52.065 3.71192 52.093 3.68396C52.1209 3.65601 52.1587 3.64028 52.1982 3.6402ZM48.552 6.24207C48.552 7.15944 49.3339 7.90352 50.2986 7.90352C51.2633 7.90352 52.0455 7.15944 52.0455 6.24207C52.0455 5.32471 51.2633 4.5809 50.2986 4.5809C49.3339 4.5809 48.552 5.32471 48.552 6.24207ZM56.8022 7.94458C56.8223 7.9782 56.8283 8.0184 56.8188 8.05642L56.7285 8.41371L56.7262 8.42306L56.7262 8.42324C56.7241 8.43194 56.722 8.44067 56.7194 8.44911L56.6371 8.76563C56.6272 8.80374 56.6026 8.83639 56.5687 8.85647C56.5349 8.87656 56.4945 8.88247 56.4563 8.87292L56.095 8.78226C55.3386 8.61461 54.5237 8.16639 54.5724 6.73885V0.649941C54.5727 0.610622 54.5886 0.573018 54.6165 0.545366C54.6444 0.517714 54.6822 0.502269 54.7214 0.502412H55.445C55.4842 0.502269 55.522 0.517714 55.5499 0.545366C55.5778 0.573018 55.5937 0.610622 55.5939 0.649941V7.00843C55.6194 7.49849 55.8139 7.67553 56.3512 7.78631L56.3609 7.78872L56.7116 7.87697C56.7496 7.88665 56.7821 7.91096 56.8022 7.94458ZM59.4956 8.05642C59.5051 8.0184 59.4991 7.97816 59.479 7.94452C59.4589 7.91088 59.4263 7.88659 59.3884 7.87697L59.0379 7.78872C59.0359 7.78872 59.0341 7.7881 59.0322 7.78747C59.0308 7.787 59.0294 7.78653 59.028 7.78631C58.492 7.67553 58.2961 7.49849 58.2707 7.00843V0.649941C58.2704 0.610622 58.2546 0.573018 58.2266 0.545366C58.1987 0.517714 58.161 0.502269 58.1217 0.502412H57.3982C57.3589 0.502269 57.3212 0.517714 57.2932 0.545366C57.2653 0.573018 57.2495 0.610622 57.2492 0.649941V6.73885C57.2007 8.16639 58.0153 8.61461 58.7718 8.78226L59.133 8.87292C59.1712 8.88248 59.2117 8.87657 59.2456 8.85649C59.2795 8.83641 59.3041 8.80376 59.3142 8.76563L59.3962 8.44911C59.3996 8.43758 59.4026 8.42551 59.4053 8.41371L59.4956 8.05642ZM9.36493 3.63457C8.83603 3.63469 8.32115 3.80488 7.89619 4.12007V0.700355C7.89619 0.566238 7.8426 0.515005 7.71076 0.515005H7.09228C6.94544 0.515005 6.90685 0.563824 6.90685 0.700355V8.64679C6.90685 8.77769 6.94544 8.83214 7.09228 8.83214H7.71076C7.84474 8.83214 7.89619 8.77581 7.89619 8.64679V6.05136C7.90235 5.25229 8.55807 4.60665 9.36493 4.60665C10.1718 4.60665 10.8302 5.25524 10.8337 6.05699V8.64679C10.8337 8.79673 10.8707 8.83214 11.0191 8.83214H11.6354C11.7826 8.83214 11.8209 8.79673 11.8209 8.64679V6.04948C11.8152 4.71877 10.7077 3.63457 9.36493 3.63457ZM3.19119 3.96461C2.17907 3.63951 1.7128 3.21195 1.7128 2.62344C1.74201 1.97002 2.35164 1.47755 3.18181 1.4467C3.85549 1.44831 4.45145 1.62615 5.03911 2.00302C5.18863 2.09341 5.26179 2.05854 5.34915 1.94508C5.35853 1.92952 5.39015 1.88365 5.49626 1.73049C5.59675 1.58645 5.63561 1.53039 5.64579 1.51268C5.71868 1.37615 5.71868 1.30346 5.56915 1.19778C5.44079 1.10604 5.08439 0.921496 4.88101 0.840758C4.32989 0.618172 3.73986 0.508185 3.14564 0.517268C1.81383 0.546237 0.770891 1.41102 0.702023 2.54995C0.658344 3.37289 1.07718 4.03408 1.94888 4.52066C2.19676 4.65102 3.084 4.9839 3.49025 5.10246C4.65162 5.44285 5.24625 6.05979 5.12379 6.77919C5.01231 7.43395 4.31988 7.87493 3.33857 7.90577C2.62122 7.89102 1.90172 7.62788 1.27843 7.16116L1.23019 7.12548L1.18169 7.08927C1.04476 6.99512 0.945339 6.99512 0.85155 7.13701L0.83701 7.15908L0.836995 7.1591C0.810952 7.19865 0.754076 7.28501 0.6972 7.37092C0.609306 7.50342 0.571254 7.56109 0.55062 7.59355C0.47023 7.71265 0.484432 7.77675 0.601535 7.87573C0.852354 8.07718 1.17526 8.28908 1.39419 8.39584C2.00344 8.69211 2.67015 8.85115 3.34742 8.86176C3.79734 8.88429 4.36114 8.7778 4.78212 8.59084C5.54584 8.25126 6.03327 7.58845 6.11849 6.77275C6.2581 5.44875 5.39202 4.62393 3.19119 3.96461ZM12.6074 6.24745C12.6074 4.8073 13.7974 3.63994 15.2648 3.63994C16.7325 3.63994 17.9225 4.8073 17.9225 6.24745C17.9225 7.68759 16.7314 8.85495 15.2648 8.85495C13.7982 8.85495 12.6074 7.68759 12.6074 6.24745ZM13.582 6.24611C13.582 7.15721 14.3351 7.89587 15.2645 7.89601C16.194 7.89587 16.9477 7.15694 16.9477 6.24611C16.9477 5.33518 16.1944 4.59647 15.2648 4.59647C14.3352 4.59647 13.582 5.33491 13.582 6.24611ZM35.358 6.59827H35.3716C35.451 6.59338 35.5255 6.55809 35.5797 6.49971C35.6338 6.44134 35.6634 6.36435 35.6624 6.2847V6.26298V6.24366C35.6624 4.80378 34.5345 3.63616 33.1435 3.63616C31.7524 3.63616 30.6246 4.80405 30.6246 6.24366C30.6244 6.35123 30.6307 6.45871 30.6433 6.56554L30.6473 6.59934C30.7148 7.11311 30.9375 7.59397 31.2856 7.97753L31.2886 7.98048C31.6832 8.4112 32.2078 8.70095 32.7822 8.80556L32.8275 8.81388L32.8959 8.82461C33.6941 8.92091 34.3662 8.79162 34.9113 8.51668C35.0446 8.45022 35.1718 8.37194 35.2912 8.28278C35.3282 8.25595 35.3604 8.22913 35.3869 8.20499C35.3986 8.19485 35.4072 8.18663 35.4136 8.1806L35.4136 8.18057L35.4201 8.17441C35.5611 8.0293 35.5672 7.96626 35.4831 7.83509C35.288 7.52394 35.1787 7.37212 35.1787 7.37212C35.1023 7.27663 35.0335 7.25464 34.9375 7.34074C34.93 7.34729 34.9228 7.35287 34.9164 7.35785C34.908 7.36431 34.9009 7.36978 34.8962 7.37507C34.3142 7.8925 33.5508 7.99389 32.8865 7.85468C32.7551 7.81978 32.6271 7.77301 32.5041 7.71493C32.0485 7.48693 31.7216 7.07921 31.627 6.60068H35.3617L35.358 6.59827ZM31.6838 5.64228C31.877 5.0114 32.4609 4.59134 33.1427 4.59134C33.8003 4.59134 34.416 5.0409 34.6277 5.64228H31.6838ZM19.6992 4.21476C20.1656 3.83342 20.7495 3.62556 21.3517 3.62652C21.7701 3.62586 22.1824 3.72595 22.554 3.91834C22.9256 4.11073 23.2455 4.38978 23.4867 4.73192C23.7278 5.07407 23.8833 5.46928 23.9398 5.88419C23.9963 6.2991 23.9523 6.72154 23.8115 7.11584C23.6706 7.51015 23.4371 7.86475 23.1306 8.14972C22.824 8.43469 22.4535 8.64167 22.0503 8.75317C21.647 8.86468 21.2229 8.87745 20.8137 8.7904C20.4045 8.70335 20.0222 8.51904 19.6992 8.25302V11.3149C19.6992 11.4522 19.6608 11.5 19.5137 11.5H18.9242C18.7774 11.5 18.739 11.4512 18.739 11.3149V3.81241C18.739 3.66836 18.7774 3.62706 18.9242 3.62706H19.5137C19.6608 3.62706 19.6992 3.67212 19.6992 3.81241V4.21476ZM20.1987 7.41504C20.5074 7.71546 20.9212 7.88323 21.3517 7.88259L21.3515 7.88393C21.6766 7.88388 21.9945 7.78785 22.2653 7.60784C22.5362 7.42784 22.748 7.17186 22.8742 6.87195C23.0004 6.57204 23.0354 6.24153 22.9749 5.92178C22.9144 5.60204 22.761 5.30726 22.5339 5.07436C22.3068 4.84146 22.0162 4.68078 21.6983 4.61243C21.3805 4.54408 21.0495 4.5711 20.7469 4.6901C20.4443 4.80911 20.1835 5.01482 19.9971 5.28147C19.8108 5.54813 19.7071 5.86389 19.6992 6.18923V6.27453C19.7107 6.70536 19.8899 7.11463 20.1987 7.41504ZM29.8281 6.24342C29.8281 4.80354 28.7005 3.63592 27.3092 3.63592C25.9179 3.63592 24.7903 4.80381 24.7903 6.24342C24.7903 6.351 24.7967 6.45848 24.8094 6.5653L24.8134 6.5991C24.8809 7.11286 25.1036 7.59372 25.4517 7.97728L25.4544 7.98024C25.849 8.41096 26.3736 8.7007 26.948 8.80532L26.9936 8.81364C27.0139 8.81712 27.0351 8.82034 27.0616 8.82437C27.8602 8.92066 28.5323 8.79137 29.0773 8.51643C29.2106 8.45004 29.3377 8.37176 29.457 8.28253C29.4944 8.25446 29.5263 8.22853 29.5529 8.20475C29.5646 8.1946 29.5733 8.18636 29.5796 8.18033L29.5862 8.17417C29.7269 8.02905 29.733 7.96602 29.6491 7.83485C29.4538 7.5237 29.3445 7.37188 29.3445 7.37188C29.2681 7.27639 29.1995 7.25439 29.1033 7.3405C29.0958 7.3472 29.0884 7.35288 29.0819 7.35796C29.0738 7.36427 29.0669 7.36963 29.0623 7.37483C28.4803 7.89225 27.7168 7.99365 27.0525 7.85443C26.921 7.81958 26.7929 7.77281 26.6699 7.71468C26.2159 7.48668 25.8874 7.07897 25.7931 6.60044H29.5414C29.6208 6.59555 29.6953 6.56025 29.7494 6.50187C29.8035 6.44348 29.833 6.36649 29.8319 6.28687V6.26515C29.8319 6.26205 29.8312 6.2596 29.8303 6.25686C29.8293 6.25342 29.8281 6.24954 29.8281 6.24342ZM25.8504 5.64231C26.0434 5.01142 26.6275 4.59137 27.3092 4.59137C27.9666 4.59137 28.5826 5.04093 28.7943 5.64231H25.8504Z" fill="white"/>
</svg>
